<?xml version="1.0" standalone="no"?>
<!DOCTYPE svg PUBLIC "-//W3C//DTD SVG 1.1//EN" "http://www.w3.org/Graphics/SVG/1.1/DTD/svg11.dtd" >
<svg xmlns="http://www.w3.org/2000/svg">
<metadata></metadata>
<defs>
<font id="aspergitlight_italic" horiz-adv-x="1228" >
<font-face units-per-em="2048" ascent="1536" descent="-512" />
<missing-glyph horiz-adv-x="1024" />
<glyph unicode="&#x30;&#x2f;&#x30;" horiz-adv-x="1740" d="M324 1147q21 106 90.5 195.5t168.5 141.5t205 52q162 0 254 -114t60 -275q-31 -161 -167.5 -275t-297.5 -114t-252.5 114t-60.5 275zM344 1147q-29 -152 58 -260.5t239 -108.5t281.5 108.5t158.5 260.5q31 152 -57 260.5t-240 108.5t-280.5 -108t-159.5 -261zM545 0 l923 1536h25l-926 -1536h-22zM934 389q32 161 168 275t297 114t253 -114t60 -275q-31 -161 -166.5 -275t-296.5 -114t-253.5 114t-61.5 275zM954 389q-29 -152 58 -260.5t239 -108.5t282 108.5t159 260.5q31 152 -57 260.5t-240 108.5t-281 -108.5t-160 -260.5z" />
<glyph unicode="AE" horiz-adv-x="1900" d="M102 0l975 1536h1018l-4 -20h-799l-143 -738h737l-4 -20h-737l-144 -738h799l-2 -20h-819l76 399h-680l-252 -399h-21zM389 420h670l213 1096h-185z" />
<glyph unicode="ae" horiz-adv-x="2232" d="M201 512q27 139 118.5 257t223 186.5t270.5 68.5q183 0 301 -116.5t121 -293.5q70 176 234 293t348 117q139 0 243.5 -68.5t149.5 -186.5t18 -257l-2 -10h-1003q-23 -131 21.5 -242t144 -175.5t231.5 -64.5q99 0 197 39t178 107l14 -14q-85 -72 -186 -112t-205 -40 q-173 0 -290 104t-132 265l-70 -369h-20l70 369q-77 -162 -233 -265.5t-329 -103.5q-139 0 -244 68.5t-150.5 186.5t-18.5 257zM221 512q-26 -133 18 -246.5t144 -179.5t233 -66q129 0 252.5 60.5t215.5 174.5t120 257q19 103 -3 195t-76 156.5t-136.5 102.5t-179.5 38 q-133 0 -259 -66t-214.5 -179.5t-114.5 -246.5zM1227 522h983q22 130 -23 241t-144.5 176t-230.5 65q-132 0 -257 -65t-213 -176t-115 -241z" />
<glyph unicode="OE" horiz-adv-x="1792" d="M250 768q31 156 119.5 298.5t211 245t276.5 163.5t310 61h820l-5 -20h-798l-144 -738h738l-4 -20h-738l-143 -738h799l-2 -20h-820q-156 0 -286.5 61t-213.5 163.5t-116.5 245t-3.5 298.5zM270 768q-29 -152 3 -290.5t113 -238.5t207.5 -159.5t278.5 -59.5l291 1496 q-203 0 -394.5 -100.5t-325.5 -272.5t-173 -375z" />
<glyph unicode="oe" horiz-adv-x="2232" d="M201 512q27 139 118.5 257t223 186.5t270.5 68.5q183 0 301 -116.5t121 -293.5q70 176 234 293t348 117q139 0 243.5 -68.5t149.5 -186.5t18 -257l-2 -10h-1003q-23 -131 21.5 -242t144 -175.5t231.5 -64.5q99 0 197 39t178 107l14 -14q-85 -72 -186 -112t-205 -40 q-185 0 -303.5 116t-120.5 292q-71 -176 -234 -292t-346 -116q-139 0 -244 68.5t-150.5 186.5t-18.5 257zM221 512q-26 -133 18 -246.5t144 -179.5t233 -66t259 66t214.5 179.5t114.5 246.5t-18 246.5t-144 179.5t-233 66t-259 -66t-214.5 -179.5t-114.5 -246.5zM1227 522 h983q22 130 -23 241t-144.5 176t-230.5 65q-132 0 -257 -65t-213 -176t-115 -241z" />
<glyph unicode="&#x2e;&#x2e;&#x2e;" horiz-adv-x="430" d="M102 0l27 143h21l-27 -143h-21zM205 0l26 143h21l-27 -143h-20zM307 0l27 143h20l-26 -143h-21z" />
<glyph horiz-adv-x="0" />
<glyph horiz-adv-x="682" />
<glyph unicode=" "  horiz-adv-x="1024" />
<glyph unicode="&#x09;" horiz-adv-x="1024" />
<glyph unicode="&#xa0;" horiz-adv-x="1024" />
<glyph unicode="!" horiz-adv-x="225" d="M102 0l39 205h21l-39 -205h-21zM201 512l198 1024h21l-199 -1024h-20z" />
<glyph unicode="&#x22;" horiz-adv-x="286" d="M340 1229l59 307h21l-60 -307h-20zM401 1229l60 307h20l-59 -307h-21z" />
<glyph unicode="#" horiz-adv-x="1429" d="M145 205v18h220l262 574h-365l-2 20h377l96 207h19l-97 -207l594 2l97 205h20l-96 -205h211v-20h-219l-265 -576l367 2l2 -18l-379 -2l-92 -205h-21l95 205h-596l-92 -205h-19l92 205h-209zM383 223h594l264 576l-596 -2z" />
<glyph unicode="$" horiz-adv-x="983" d="M102 0l2 20h379l146 742q-39 12 -60 19t-56.5 20t-55 24.5t-46.5 29.5t-41 37t-29.5 45.5t-20.5 56.5t-5 69t9 84q31 158 163.5 271t290.5 118l29 143h20l-28 -143h379l-4 -20h-379l-144 -744q37 -11 59.5 -18t56.5 -20t54 -24.5t46.5 -29.5t41 -37t29.5 -45.5t20 -56.5 t5 -69t-9 -83q-31 -159 -163 -272.5t-289 -116.5l-29 -143h-20l28 143h-379zM335.5 1068q-0.5 -37 4.5 -65.5t18.5 -54t28 -44t38.5 -36t44 -28.5t51.5 -23.5t53.5 -20t57 -18.5l143 738q-149 -5 -275 -112.5t-155 -256.5q-8 -42 -8.5 -79zM504 20q149 3 275 110.5 t155 258.5q9 47 9.5 87t-9 71.5t-23 56.5t-38 45.5t-46.5 35t-56 28.5t-59.5 23t-64.5 20z" />
<glyph unicode="&#x26;" d="M201 512q24 126 104 236t193 182q-61 129 -6 282t198 248q99 62 205 73.5t193.5 -29t134.5 -124.5q54 -104 28 -233h-20q25 118 -31 221q-65 120 -212.5 142.5t-287.5 -68.5q-137 -91 -189.5 -235t5.5 -267l438 -805q96 69 162.5 167t87.5 210h21q-23 -117 -91.5 -219 t-168.5 -174l65 -119h-26l-60 104q-154 -104 -330 -104q-139 0 -244 68.5t-150.5 186.5t-18.5 257zM221 512q-26 -133 18 -246.5t144 -179.5t233 -66q166 0 320 101l-430 790q-108 -67 -184.5 -172.5t-100.5 -226.5z" />
<glyph unicode="'" horiz-adv-x="225" d="M340 1229l59 307h21l-60 -307h-20z" />
<glyph unicode="(" horiz-adv-x="358" d="M127 133l248 1270q12 63 65.5 108t116.5 45l-4 -20q-55 0 -101 -38.5t-57 -94.5l-248 -1270q-10 -55 21.5 -94t87.5 -39l-4 -20q-63 0 -100 45t-25 108z" />
<glyph unicode=")" horiz-adv-x="358" d="M98 -20l4 20q55 0 101 38.5t57 94.5l248 1270q10 55 -21.5 94t-87.5 39l4 20q63 0 100 -45t25 -108l-247 -1270q-12 -63 -66 -108t-117 -45z" />
<glyph unicode="*" horiz-adv-x="770" d="M272 877l322 270l-217 266l16 14l211 -256l70 365h20l-69 -365l305 256l12 -14l-319 -266l215 -270l-19 -15l-205 260l-71 -366h-21l72 366l-311 -260z" />
<glyph unicode="+" horiz-adv-x="983" d="M248 758l4 20h379l74 379h20l-74 -379h379l-4 -20h-379l-74 -379h-20l74 379h-379z" />
<glyph unicode="," horiz-adv-x="225" d="M61 -205l43 225h21l-43 -225h-21z" />
<glyph unicode="-" horiz-adv-x="716" d="M219 604l4 21h512l-4 -21h-512z" />
<glyph unicode="." horiz-adv-x="225" d="M102 0l27 143h21l-27 -143h-21z" />
<glyph unicode="/" horiz-adv-x="856" d="M102 0l924 1536h25l-926 -1536h-23z" />
<glyph unicode="0" horiz-adv-x="983" d="M176 389l148 758q21 106 90.5 195.5t168.5 141.5t205 52q162 0 254 -114t60 -275l-148 -758q-31 -161 -166 -275t-296 -114t-254 114t-62 275zM197 389q-29 -152 58 -260.5t239 -108.5t281.5 108.5t158.5 260.5l147 758q31 152 -57 260.5t-240 108.5t-280.5 -108 t-159.5 -261z" />
<glyph unicode="1" horiz-adv-x="409" d="M287 0l293 1516h-185l4 20h205l-297 -1536h-20z" />
<glyph unicode="2" horiz-adv-x="983" d="M117 0l2 20l848 906q115 124 121.5 274t-99.5 242q-103 90 -258.5 68t-269.5 -142q-92 -103 -117 -221h-20q26 128 122 233q122 128 285 151.5t277 -71.5q109 -96 101.5 -255.5t-128.5 -289.5l-836 -895h738l-2 -20h-764z" />
<glyph unicode="3" horiz-adv-x="983" d="M176 389h21q-29 -152 58 -260.5t239 -108.5t281.5 108.5t158.5 260.5q31 152 -57 260.5t-240 108.5l4 20q156 0 283 109t157 260q31 152 -57 260.5t-240 108.5t-280.5 -108t-159.5 -261h-20q21 106 90.5 195.5t168.5 141.5t205 52q162 0 254 -114t60 -275 q-26 -137 -132.5 -243t-242.5 -136q126 -31 190 -136.5t37 -242.5q-31 -161 -166 -275t-296 -114t-254 114t-62 275z" />
<glyph unicode="4" horiz-adv-x="1024" d="M199 502l659 1034h21l-646 -1014h768l99 502h20l-198 -1024h-21l96 502h-798z" />
<glyph unicode="5" horiz-adv-x="1085" d="M137 150l17 14q117 -142 320.5 -142t375.5 142q112 95 170 221.5t49.5 253t-84.5 221.5q-117 142 -320.5 142t-375.5 -142h-21l131 676h881l-4 -20h-860l-121 -629q116 92 251 122.5t257 -5t201 -130.5q78 -99 87 -230.5t-51.5 -263t-177.5 -230.5 q-118 -98 -256.5 -132.5t-263.5 0t-205 132.5z" />
<glyph unicode="6" horiz-adv-x="1230" d="M202.5 513.5q26.5 136.5 119.5 256.5l589 766h23l-504 -653q144 117 317 138t308 -65q108 -69 153 -187.5t19 -254.5t-119 -256q-69 -91 -163.5 -153t-193.5 -87t-199 -12.5t-181 64.5q-106 70 -150.5 188.5t-18 255zM222 514.5q-25 -131.5 18 -246t145 -180.5 q76 -50 172.5 -61.5t191.5 12t186 83t157 146.5q89 115 114 246t-18 245.5t-146 180.5q-155 101 -362 48t-344 -228q-89 -114 -114 -245.5z" />
<glyph unicode="7" horiz-adv-x="974" d="M178 0l965 1516h-748l4 20h770l-4 -20l-962 -1516h-25z" />
<glyph unicode="8" d="M201 512q37 190 186.5 332.5t339.5 171.5q-76 27 -113 96.5t-20 157.5q22 110 114.5 188t202.5 78t173.5 -78t41.5 -188q-17 -88 -81.5 -157.5t-149.5 -96.5q176 -30 271 -172.5t59 -331.5q-27 -139 -118.5 -257t-222.5 -186.5t-270 -68.5t-244 68.5t-150.5 186.5 t-18.5 257zM221 512q-26 -133 18 -246.5t144 -179.5t233 -66t259 66t214.5 179.5t114.5 246.5q25 132 -17.5 245t-142.5 180t-235 67q-205 0 -377 -145.5t-211 -346.5zM614 1270q-20 -101 39 -173.5t160 -72.5t187 72.5t106 173.5t-39 173.5t-160 72.5t-187 -72.5 t-106 -173.5z" />
<glyph unicode="9" horiz-adv-x="1230" d="M301 1022q26 136 119 256q69 91 163.5 153t193.5 87t199 12.5t181 -64.5q106 -70 150 -189t17.5 -255t-118.5 -256l-590 -766h-22l504 653q-144 -117 -318 -138.5t-307 65.5q-108 69 -153 187.5t-19 254.5zM322 1022q-25 -131 17.5 -245.5t145.5 -180.5 q155 -101 362.5 -48t344.5 228q88 115 113 246t-17.5 245.5t-144.5 180.5q-76 50 -172.5 61.5t-191.5 -12t-186 -83t-157 -146.5q-89 -115 -114 -246z" />
<glyph unicode=":" horiz-adv-x="225" d="M102 0l27 143h21l-27 -143h-21zM272 881l29 143h21l-29 -143h-21z" />
<glyph unicode=";" horiz-adv-x="225" d="M61 -205l43 225h21l-43 -225h-21zM272 881l29 143h21l-29 -143h-21z" />
<glyph unicode="&#x3c;" horiz-adv-x="798" d="M248 756l6 24l661 350l-6 -24l-639 -338l508 -340l-4 -22z" />
<glyph unicode="=" horiz-adv-x="983" d="M184 428l4 21h779l-4 -21h-779zM313 1085l2 21h779l-2 -21h-779z" />
<glyph unicode="&#x3e;" horiz-adv-x="798" d="M180 406l4 22l639 340l-508 338l7 24l526 -350l-6 -24z" />
<glyph unicode="?" horiz-adv-x="983" d="M324 1147q21 106 90.5 195.5t168.5 141.5t205 52q162 0 254 -114t60 -275l-27 -143q-21 -106 -90.5 -195.5t-169 -142t-205.5 -52.5l-20 -102h-21l25 123h20q152 0 282 108.5t159 260.5l26 143q31 152 -57 260.5t-240 108.5t-280.5 -108t-159.5 -261h-20zM471 0l39 205 h20l-38 -205h-21z" />
<glyph unicode="@" horiz-adv-x="1740" d="M201 512q40 209 177.5 385.5t334 279.5t405.5 103t365.5 -103t225 -279.5t28.5 -385.5q-40 -208 -177.5 -385t-334.5 -280t-406 -103q-156 0 -286.5 61t-213 163.5t-115.5 245t-3 298.5zM221 512q-29 -152 3 -290.5t113 -238.5t207.5 -159.5t278.5 -59.5q137 0 274 49.5 t255 137.5l80 418q-77 -162 -233 -265.5t-329 -103.5q-139 0 -244 68.5t-150.5 186.5t-18.5 257t118.5 257t223 186.5t270.5 68.5t243.5 -68.5t150 -186.5t18.5 -257l-105 -543q131 104 220.5 244.5t119.5 298.5q29 152 -3 290.5t-113 238.5t-207.5 159.5t-278.5 59.5 q-203 0 -394.5 -100.5t-325.5 -272.5t-173 -375zM477 512q-26 -133 18 -246.5t144 -179.5t233 -66q130 0 255 63t215.5 177t117.5 252q26 133 -18 246.5t-144 179.5t-233 66t-259 -66t-214.5 -179.5t-114.5 -246.5z" />
<glyph unicode="A" horiz-adv-x="1771" d="M102 0l975 1536h211l381 -1536h-20l-101 399h-1173l-252 -399h-21zM389 420h1153l-270 1096h-185z" />
<glyph unicode="B" d="M102 0l297 1536h635q162 0 254 -114q68 -85 68 -195q0 -38 -8 -80q-26 -137 -132.5 -243t-242.5 -136q126 -30 190 -136q45 -74 45 -164q0 -38 -8 -79q-31 -161 -166.5 -275t-296.5 -114h-635zM125 20h614q152 0 282 108.5t159 260.5q8 39 8 75q0 102 -61 180 q-82 108 -230 114h-629zM272 778h629q149 6 273 113t153 256q8 40 8 76q0 105 -65 185q-88 108 -240 108h-614z" />
<glyph unicode="C" horiz-adv-x="1517" d="M239 570q-2 26 -2 53q-1 172 79 343q92 198 268 345q174 149 382 201q104 26 203 26t193 -26q188 -52 307 -201l-16 -15q-116 143 -299 194q-92 26 -188 26t-198 -26q-202 -51 -372 -194q-172 -144 -260 -336q-77 -168 -77 -335q0 -25 2 -49q13 -192 128 -336 q116 -143 299 -194q92 -26 188 -26t198 26q202 51 372 194l12 -15q-176 -149 -384 -201q-104 -26 -203 -26t-193 26q-188 52 -305 201q-120 147 -134 345z" />
<glyph unicode="D" horiz-adv-x="1433" d="M102 0l297 1536h461q209 0 366 -103q158 -103 226 -280q43 -111 43 -234q0 -74 -16 -151q-40 -209 -177 -385.5t-333.5 -279.5t-405.5 -103h-461zM125 20h440q203 0 394.5 100.5t325.5 272.5t173 375q14 72 14 141q0 75 -17 149q-32 138 -113 238.5t-207.5 160 t-278.5 59.5h-440z" />
<glyph unicode="E" horiz-adv-x="1024" d="M102 0l297 1536h820l-5 -20h-798l-144 -738h738l-4 -20h-738l-143 -738h799l-2 -20h-820z" />
<glyph unicode="F" horiz-adv-x="1024" d="M102 0l297 1536h820l-5 -20h-798l-144 -738h738l-4 -20h-738l-145 -758h-21z" />
<glyph unicode="G" horiz-adv-x="1517" d="M239 570q-2 26 -2 53q0 171 79 343q92 198 268 345q175 148 382 201q104 26 203 26t193 -26q188 -53 307 -201l-16 -15q-116 143 -299 194q-92 26 -188 26t-198 -26q-202 -51 -372 -194q-171 -143 -260 -336q-77 -167 -77 -335q0 -25 2 -49q13 -193 128 -336 q115 -142 297 -194q93 -26 191 -26q93 0 191 24q202 49 372 189l73 381h21l-76 -389q-176 -148 -384 -201q-104 -26 -203 -26t-193 26q-187 53 -305 201q-120 147 -134 345z" />
<glyph unicode="H" horiz-adv-x="1126" d="M102 0l297 1536h21l-148 -758h881l147 758h21l-297 -1536h-20l145 758h-881l-145 -758h-21z" />
<glyph unicode="I" horiz-adv-x="225" d="M102 0l297 1536h21l-297 -1536h-21z" />
<glyph unicode="J" horiz-adv-x="593" d="M102 0l2 20q152 0 282 108.5t159 260.5l223 1147h20l-223 -1147q-31 -161 -166.5 -275t-296.5 -114z" />
<glyph unicode="K" horiz-adv-x="1155" d="M102 0l297 1536h21l-193 -993l1096 993h27l-848 -768l551 -768h-27l-539 752l-266 -240l-98 -512h-21z" />
<glyph unicode="L" horiz-adv-x="1024" d="M102 0l297 1536h21l-295 -1516h799l-2 -20h-820z" />
<glyph unicode="M" horiz-adv-x="2070" d="M102 0l297 1536h205l481 -1266l975 1266h205l-297 -1536h-20l293 1516h-173l-974 -1266h-25l-481 1266h-172l-293 -1516h-21z" />
<glyph unicode="N" horiz-adv-x="1611" d="M102 0l297 1536h205l891 -1503l291 1503h20l-297 -1536h-20l-899 1516h-174l-293 -1516h-21z" />
<glyph unicode="O" horiz-adv-x="1740" d="M250 768q31 156 119.5 298.5t211 245t276.5 163.5t310 61q209 0 366 -103t225 -280q43 -111 44 -234q0 -74 -16 -151q-40 -209 -177 -385.5t-333.5 -279.5t-405.5 -103q-156 0 -286.5 61t-213.5 163q-82 104 -116 246q-18 75 -18 154q0 70 14 144zM270 768 q-14 -72 -14 -141q0 -75 17 -149q32 -138 113 -238.5t207.5 -160t278.5 -59.5q203 0 394.5 100.5t325.5 272.5t173 375q14 72 14 141q0 75 -17 149q-32 138 -113 238.5t-207.5 160t-278.5 59.5q-203 0 -394.5 -100.5t-325.5 -272.5t-173 -375z" />
<glyph unicode="P" horiz-adv-x="1433" d="M102 0l297 1536h666q153 0 268 -76q115 -74 165 -204q32 -82 32 -175q0 -53 -10 -108q-30 -153 -131 -282.5t-245.5 -205t-297.5 -75.5h-645l-78 -410h-21zM205 430h645q147 0 286.5 73t236.5 198t126 272q10 54 10 105q-1 88 -31 167q-48 125 -159 198t-258 73h-645z " />
<glyph unicode="Q" horiz-adv-x="1744" d="M239 570q-2 26 -2 53q0 171 79 343q92 198 268 345q175 148 382 201q104 26 203 26t193 -26q188 -53 307 -201q119 -146 133 -343q3 -27 3 -55q0 -169 -77 -338q-89 -197 -262 -344l176 -217l-16 -14l-176 217q-176 -144 -382 -195q-101 -24 -196 -24q-101 0 -196 27 q-185 53 -303 200q-120 147 -134 345zM261 576q13 -193 128 -336q115 -142 295 -194q94 -27 193 -27q92 0 189 23q201 49 372 189l-162 203l16 15l164 -203q166 143 252 334q74 166 74 331q0 26 -2 52q-13 191 -127 333q-116 143 -299 194q-92 26 -188 26t-198 -26 q-202 -51 -372 -194q-171 -143 -260 -336q-77 -167 -77 -335q0 -25 2 -49z" />
<glyph unicode="R" horiz-adv-x="1433" d="M102 0l297 1536h666q153 0 268 -76q115 -74 165 -204q32 -82 32 -175q0 -53 -10 -108q-30 -153 -131 -282.5t-245.5 -205t-297.5 -75.5h-15l332 -410h-28l-332 410h-602l-78 -410h-21zM205 430h645q147 0 286.5 73t236.5 198t126 272q10 54 10 105q-1 88 -31 167 q-48 125 -159 198t-258 73h-645z" />
<glyph unicode="S" horiz-adv-x="983" d="M102 0l2 20h390q152 0 281.5 108.5t158.5 260.5q10 51 10 94q0 35 -7 65q-15 66 -72 107.5t-99.5 59.5t-133.5 46q-90 28 -135 47t-103 61.5t-74 110.5q-7 31 -6 68q0 45 10 99q21 106 90.5 195.5t168.5 141.5t205 52h390l-4 -20h-390q-152 0 -280.5 -108t-159.5 -261 q-10 -51 -9 -94q0 -35 6 -65q15 -66 73 -107.5t99.5 -59.5t133.5 -46q90 -28 135 -47t102.5 -61.5t73.5 -110.5q7 -31 7 -68q0 -45 -11 -99q-31 -161 -166 -275t-296 -114h-390z" />
<glyph unicode="T" d="M395 1516l4 20h1024l-4 -20h-501l-293 -1516h-21l293 1516h-502z" />
<glyph unicode="U" horiz-adv-x="1331" d="M211 563l188 973h21l-189 -973q-10 -54 -10 -105q1 -88 31 -167q48 -125 158.5 -198t257.5 -73q224 0 415 159.5t234 383.5l188 973h21l-189 -973q-30 -153 -130 -282.5t-244 -205t-297 -75.5t-268 76q-116 74 -166 204q-32 81 -32 172q0 54 11 111z" />
<glyph unicode="V" horiz-adv-x="1771" d="M399 1536h21l375 -1516h184l967 1516h20l-975 -1536h-211z" />
<glyph unicode="W" horiz-adv-x="2502" d="M399 1536h21l375 -1516h184l379 594h22l146 -594h184l967 1516h20l-975 -1536h-211l-147 590l-373 -590h-211z" />
<glyph unicode="X" horiz-adv-x="1245" d="M102 0l658 768l-359 768h23l350 -750l641 750h25l-658 -768l361 -768h-21l-354 752l-643 -752h-23z" />
<glyph unicode="Y" horiz-adv-x="1716" d="M399 1536h23l516 -1108l948 1108h25l-967 -1126l-78 -410h-20l78 410z" />
<glyph unicode="Z" d="M102 0l39 205l1252 1311h-998l4 20h1020l-4 -20l-1255 -1317l-35 -179h1003l-2 -20h-1024z" />
<glyph unicode="[" horiz-adv-x="358" d="M98 -20l305 1576h154l-4 -20h-133l-297 -1536h133l-4 -20h-154z" />
<glyph unicode="\" horiz-adv-x="856" d="M399 1536h25l330 -1536h-23z" />
<glyph unicode="]" horiz-adv-x="358" d="M98 -20l4 20h134l296 1536h-133l4 20h154l-305 -1576h-154z" />
<glyph unicode="_" horiz-adv-x="983" d="M94 -41l4 21h779l-5 -21h-778z" />
<glyph unicode="`" horiz-adv-x="479" d="M397 1520l13 16l235 -156l-14 -16z" />
<glyph unicode="a" d="M201 512q27 139 118.5 257t223 186.5t270.5 68.5t243 -68q104 -69 150 -187q29 -74 29 -156q0 -49 -10 -101l-99 -512h-20l70 369q-77 -162 -233 -265.5t-329 -103.5q-139 0 -244 68q-104 69 -150 187q-29 74 -29 156q0 49 10 101zM221 512q-10 -49 -10 -96 q0 -78 28 -150q44 -114 144 -180t233 -66q130 0 255 63t215.5 177t117.5 252q10 49 10 96q0 78 -28 150q-44 114 -144 180t-233 66t-259 -66t-214.5 -179.5t-114.5 -246.5z" />
<glyph unicode="b" d="M102 0l297 1536h21l-170 -883q77 162 233.5 266.5t329.5 104.5q139 0 243 -68q104 -69 150 -187q29 -74 29 -156q0 -49 -10 -101q-27 -139 -118.5 -257t-222.5 -186.5t-270 -68.5q-173 0 -289.5 104t-131.5 265l-70 -369h-21zM221 512q-10 -50 -10 -97q-1 -51 11 -99 q22 -92 76.5 -156.5t137 -102t180.5 -37.5q133 0 259 66t214.5 179.5t114.5 246.5q10 49 10 96q0 78 -28 150q-44 114 -144 180t-233 66q-131 0 -256 -63.5t-215 -177.5t-117 -251z" />
<glyph unicode="c" horiz-adv-x="1079" d="M190 380q-1 18 -1 36q1 114 53 228q60 132 178 230t256 132q69 17 134.5 17.5t128.5 -17.5q125 -34 206 -132l-19 -14q-116 142 -320 142t-376 -142q-112 -95 -170 -222q-51 -111 -51 -222q-1 -16 1 -32q8 -127 85 -220q117 -142 321.5 -142t374.5 142l13 -14 q-118 -99 -256 -134q-69 -18 -135.5 -18t-128.5 18q-125 35 -205 134q-79 98 -89 230z" />
<glyph unicode="d" d="M201 512q27 139 118.5 257t223 186.5t270.5 68.5q173 0 289 -104.5t131 -266.5l170 883h20l-297 -1536h-20l70 369q-77 -162 -233 -265.5t-329 -103.5q-139 0 -244 68q-104 69 -150 187q-29 74 -29 156q0 49 10 101zM221 512q-10 -49 -10 -96q0 -78 28 -150 q44 -114 144 -180t233 -66q201 0 374 141.5t214 350.5q10 50 10 97q0 51 -12 98q-22 92 -76 156.5t-136.5 102.5t-180.5 38q-133 0 -259 -66t-214.5 -179.5t-114.5 -246.5z" />
<glyph unicode="e" d="M201 512q27 139 118.5 257t223 186.5t270.5 68.5t243 -68q104 -69 150 -187q29 -74 29 -156q0 -49 -10 -101l-2 -10h-1004q-8 -45 -8 -87q-1 -82 29 -155q44 -111 144 -175.5t232 -64.5q99 0 197 39t178 107l15 -14q-85 -72 -186.5 -112t-205.5 -40q-139 0 -244 68 q-104 69 -150 187q-29 74 -29 156q0 49 10 101zM223 522h983q7 43 7 83q0 83 -30 158q-45 111 -144 176t-230 65q-132 0 -257.5 -65t-213.5 -176t-115 -241z" />
<glyph unicode="f" horiz-adv-x="716" d="M102 0l199 1024q27 139 118 257t222 186.5t270 68.5l-4 -20q-99 0 -197.5 -39t-177 -105t-135 -157.5t-75.5 -190.5l-99 -502h492l-4 -20h-492l-96 -502h-21z" />
<glyph unicode="g" d="M176 -358l19 16q55 -70 138.5 -110t184.5 -40q133 0 259 66t214.5 179.5t114.5 246.5l72 371q-79 -162 -235.5 -266.5t-328.5 -104.5q-139 0 -244 68.5t-150 186.5q-29 74 -29 156q0 49 10 101q27 139 118.5 257t223 186.5t270.5 68.5q173 0 289 -103.5t131 -265.5 l72 369h20l-199 -1024q-27 -139 -118.5 -257t-223 -186.5t-270.5 -68.5q-105 0 -192.5 41t-145.5 113zM221 512q-10 -49 -10 -96q0 -79 28 -150q44 -114 144 -180t233 -66q131 0 256 63.5t215 177.5t117 251q10 50 10 97q0 51 -12 99q-21 92 -75.5 156.5t-137 102 t-180.5 37.5q-133 0 -259 -66t-214.5 -179.5t-114.5 -246.5z" />
<glyph unicode="h" d="M102 0l297 1536h21l-170 -883q77 162 233.5 266.5t329.5 104.5q139 0 243 -68q104 -69 150 -187q29 -74 29 -156q0 -49 -10 -101l-99 -512h-20l98 512q10 49 10 96q0 78 -28 150q-44 114 -144 180t-233 66q-131 0 -256 -63.5t-215 -177.5t-117 -251l-98 -512h-21z" />
<glyph unicode="i" horiz-adv-x="225" d="M102 0l199 1024h21l-199 -1024h-21zM360 1331l39 205h21l-39 -205h-21z" />
<glyph unicode="j" horiz-adv-x="225" d="M-365 -512l5 20q152 0 280.5 108.5t157.5 260.5l223 1147h21l-224 -1147q-21 -106 -90 -195.5t-168 -141.5t-205 -52zM360 1331l39 205h21l-39 -205h-21z" />
<glyph unicode="k" horiz-adv-x="980" d="M102 0l297 1536h21l-250 -1288l807 776h29l-537 -516l410 -508h-27l-399 494l-289 -281l-41 -213h-21z" />
<glyph unicode="l" horiz-adv-x="225" d="M102 0l297 1536h21l-297 -1536h-21z" />
<glyph unicode="m" horiz-adv-x="1740" d="M102 0l199 1024h21l-68 -346q68 153 188.5 249.5t247.5 96.5q136 0 220 -112q81 -108 81 -271v-12q64 170 192 282.5t265 112.5q106 0 182 -68.5t105 -186.5q15 -61 15 -128q0 -62 -13 -129l-99 -512h-20l98 512q13 65 13 126q0 62 -14 120q-27 114 -99 180t-172 66 q-152 0 -288.5 -144.5t-176.5 -347.5l-98 -512h-21l98 512q13 65 13 126q0 62 -14 120q-27 114 -99 180t-172 66q-150 0 -286.5 -139t-174.5 -333l-102 -532h-21z" />
<glyph unicode="n" d="M102 0l199 1024h21l-72 -371q77 162 233.5 266.5t329.5 104.5q139 0 243 -68q104 -69 150 -187q29 -74 29 -156q0 -49 -10 -101l-99 -512h-20l98 512q10 49 10 96q0 78 -28 150q-44 114 -144 180t-233 66q-130 0 -255.5 -63t-214.5 -172.5t-114 -236.5l-102 -532h-21z " />
<glyph unicode="o" d="M201 512q27 139 118.5 257t223 186.5t270.5 68.5t243 -68q104 -69 150 -187q29 -74 29 -156q0 -49 -10 -101q-27 -139 -118.5 -257t-222.5 -186.5t-270 -68.5t-244 68q-104 69 -150 187q-29 74 -29 156q0 49 10 101zM221 512q-10 -49 -10 -96q0 -78 28 -150 q44 -114 144 -180t233 -66t259 66t214.5 179.5t114.5 246.5q10 49 10 96q0 78 -28 150q-44 114 -144 180t-233 66t-259 -66t-214.5 -179.5t-114.5 -246.5z" />
<glyph unicode="p" d="M2 -512l299 1536h21l-72 -369q77 161 233.5 265t329.5 104q139 0 243.5 -68.5t149.5 -186.5q29 -74 29 -156q0 -49 -10 -101q-27 -139 -118.5 -257t-222.5 -186.5t-270 -68.5q-173 0 -289 104.5t-130 266.5l-172 -883h-21zM221 512q-10 -50 -10 -97q0 -50 11 -98 q22 -92 76.5 -156.5t137 -102.5t180.5 -38q133 0 259 66t214.5 179.5t114.5 246.5q10 49 10 96q0 79 -28 150q-44 114 -144 180t-233 66q-201 0 -374 -141.5t-214 -350.5z" />
<glyph unicode="q" d="M201 512q27 139 118.5 257t223 186.5t270.5 68.5q173 0 289 -103.5t131 -265.5l72 369h20l-299 -1536h-20l172 883q-79 -162 -235.5 -266.5t-328.5 -104.5q-139 0 -244 68.5t-150 186.5q-29 74 -29 156q0 49 10 101zM221 512q-10 -49 -10 -96q0 -79 28 -150 q44 -114 144 -180t233 -66q131 0 256 63.5t215 177.5t117 251q10 50 10 97q0 51 -12 99q-21 92 -75.5 156.5t-137 102t-180.5 37.5q-133 0 -259 -66t-214.5 -179.5t-114.5 -246.5z" />
<glyph unicode="r" horiz-adv-x="716" d="M102 0l199 1024h21l-72 -371q77 162 233.5 266.5t329.5 104.5l-4 -20q-130 0 -255.5 -63t-214.5 -172.5t-114 -236.5l-102 -532h-21z" />
<glyph unicode="s" horiz-adv-x="727" d="M102 0l2 20h261q100 0 184.5 70.5t103.5 169.5q6 30 6 56q-1 34 -11 62q-18 48 -57.5 71.5t-89.5 40.5l-100 34t-89.5 42t-57.5 75q-10 28 -10 64q0 28 6 59q22 109 113 184.5t200 75.5h260l-4 -20h-260q-100 0 -184.5 -70t-104.5 -170q-6 -31 -6 -57q0 -23 4 -41 q9 -42 33.5 -65.5t59 -42.5t74 -29t78.5 -25t73 -30.5t58 -44.5t33 -68q4 -17 4 -38q0 -28 -7 -63q-22 -109 -112.5 -184.5t-199.5 -75.5h-260z" />
<glyph unicode="t" horiz-adv-x="727" d="M102 0l297 1536h21l-98 -512h501l-4 -20h-502l-194 -1004h-21z" />
<glyph unicode="u" d="M201 512l100 512h21l-101 -512q-10 -49 -10 -96q0 -78 28 -150q44 -114 144 -180t233 -66t259 66t214.5 179.5t114.5 246.5l101 512h20l-100 -512q-27 -139 -118.5 -257t-222.5 -186.5t-270 -68.5t-244 68q-104 69 -150 187q-29 74 -29 156q0 49 10 101z" />
<glyph unicode="v" horiz-adv-x="1132" d="M301 1024h21l245 -1004l641 1004h21l-649 -1024h-27z" />
<glyph unicode="w" horiz-adv-x="1740" d="M201 512l100 512h21l-101 -512q-13 -65 -13 -125q0 -63 14 -121q28 -114 100 -180t172 -66q152 0 288 144.5t176 347.5l101 512h20l-104 -532q-12 -59 -11 -114q0 -64 15 -123q29 -109 101.5 -172t170.5 -63q152 0 288.5 144.5t176.5 347.5l101 512h20l-100 -512 q-41 -212 -184 -362t-304 -150q-137 0 -223 112q-81 106 -80 264v19q-65 -172 -191.5 -283.5t-262.5 -111.5q-106 0 -182 68q-76 69 -106 187q-15 62 -16 129q0 62 13 128z" />
<glyph unicode="x" horiz-adv-x="905" d="M102 0l439 512l-240 512h23l231 -494l422 494h24l-438 -512l240 -512h-21l-233 496l-424 -496h-23z" />
<glyph unicode="y" horiz-adv-x="1128" d="M225 -512l328 512l-252 1024h21l245 -999l637 999h21l-975 -1536h-25z" />
<glyph unicode="z" horiz-adv-x="989" d="M109 0l2 20l940 984h-754l4 20h778l-4 -20l-942 -984h756l-2 -20h-778z" />
<glyph unicode="{" horiz-adv-x="460" d="M229 133l121 625h-102l4 20h102l123 625q12 63 65.5 108t116.5 45l-4 -20q-55 0 -100.5 -38.5t-56.5 -94.5l-248 -1270q-10 -55 21 -94t87 -39l-4 -20q-63 0 -100 45t-25 108z" />
<glyph unicode="|" horiz-adv-x="225" d="M98 -20l305 1576h21l-305 -1576h-21z" />
<glyph unicode="}" horiz-adv-x="460" d="M98 -20l4 20q55 0 101 38.5t57 94.5l248 1270q10 55 -21.5 94t-87.5 39l4 20q63 0 100 -45t25 -108l-122 -625h102l-4 -20h-103l-120 -625q-12 -63 -66 -108t-117 -45z" />
<glyph unicode="&#xa1;" horiz-adv-x="225" d="M2 -512l199 1024h20l-198 -1024h-21zM260 819l41 205h21l-41 -205h-21z" />
<glyph unicode="&#xa2;" horiz-adv-x="1079" d="M192.5 380.5q-9.5 131.5 51 263t178.5 230.5q173 145 379 148l20 104h21l-21 -104q97 -2 182 -39.5t144 -108.5l-19 -14q-57 69 -136.5 105.5t-172.5 38.5l-192 -984q197 3 366 144l13 -14q-178 -147 -381 -150l-21 -102h-20l20 102q-99 2 -183 40t-140 110 q-79 99 -88.5 230.5zM212.5 384q8.5 -127 84.5 -220q111 -137 309 -144l193 981q-201 -3 -367 -141q-112 -95 -170 -222t-49.5 -254z" />
<glyph unicode="&#xa6;" horiz-adv-x="225" d="M98 -20l133 688h21l-133 -688h-21zM270 872l133 684h21l-133 -684h-21z" />
<glyph unicode="&#xa8;" horiz-adv-x="614" d="M373 1393l26 143h21l-27 -143h-20zM762 1393l26 143h21l-27 -143h-20z" />
<glyph unicode="&#xad;" horiz-adv-x="716" d="M219 604l4 21h512l-4 -21h-512z" />
<glyph unicode="&#xb1;" horiz-adv-x="983" d="M160 297l4 20h778l-4 -20h-778zM248 758l4 20h379l74 379h20l-74 -379h379l-4 -20h-379l-74 -379h-20l74 379h-379z" />
<glyph unicode="&#xb4;" horiz-adv-x="479" d="M371 1380l293 156l8 -16l-295 -156z" />
<glyph unicode="&#xb5;" d="M2 -512l299 1536h21l-101 -512q-26 -133 18 -246.5t144 -179.5t233 -66q197 0 367.5 138t216.5 334l105 532h20l-199 -1024h-20l70 369q-77 -162 -233 -265.5t-329 -103.5t-289.5 104t-131.5 265l-170 -881h-21z" />
<glyph unicode="&#xb6;" d="M301 1024q27 139 118 257t222 186.5t270 68.5h512l-4 -20h-184l-393 -2028h-21l393 2028h-296l-394 -2028h-20l198 1024q-137 2 -239 71t-145.5 186t-16.5 255z" />
<glyph unicode="&#xb7;" horiz-adv-x="225" d="M238 696l26 144h21l-27 -144h-20z" />
<glyph unicode="&#xb8;" horiz-adv-x="290" d="M51 -268l10 63l105 215h22z" />
<glyph unicode="&#xbf;" horiz-adv-x="614" d="M78 -123l26 143q21 106 90.5 195.5t169 142t205.5 52.5l21 102h20l-24 -123h-21q-152 0 -280.5 -108t-159.5 -261l-27 -143q-29 -152 58 -260.5t239 -108.5t282 108.5t159 260.5h20q-32 -161 -168 -275t-297 -114t-253 114t-60 275zM649 819l41 205h21l-41 -205h-21z" />
<glyph unicode="&#xc0;" horiz-adv-x="1771" d="M102 0l975 1536h211l381 -1536h-20l-101 399h-1173l-252 -399h-21zM389 420h1153l-270 1096h-185zM1083 1733l13 16l235 -156l-14 -16z" />
<glyph unicode="&#xc1;" horiz-adv-x="1771" d="M102 0l975 1536h211l381 -1536h-20l-101 399h-1173l-252 -399h-21zM389 420h1153l-270 1096h-185zM1057 1593l293 156l8 -16l-295 -156z" />
<glyph unicode="&#xc2;" horiz-adv-x="1771" d="M102 0l975 1536h211l381 -1536h-20l-101 399h-1173l-252 -399h-21zM389 420h1153l-270 1096h-185zM874 1536l367 307l248 -307h-29l-223 279l-334 -279h-29z" />
<glyph unicode="&#xc3;" horiz-adv-x="1771" d="M102 0l975 1536h211l381 -1536h-20l-101 399h-1173l-252 -399h-21zM389 420h1153l-270 1096h-185zM965 1593l98 82l272 -76l80 66l21 -6l-101 -82l-272 76l-80 -66z" />
<glyph unicode="&#xc4;" horiz-adv-x="1771" d="M102 0l975 1536h211l381 -1536h-20l-101 399h-1173l-252 -399h-21zM389 420h1153l-270 1096h-185zM985 1577l27 143h20l-26 -143h-21zM1374 1577l27 143h20l-26 -143h-21z" />
<glyph unicode="&#xc5;" horiz-adv-x="1771" d="M102 0l975 1536h211l381 -1536h-20l-101 399h-1173l-252 -399h-21zM389 420h1153l-270 1096h-185zM1067 1731q12 63 65.5 108t116.5 45t100 -45t25 -108t-66.5 -108.5t-117.5 -45.5t-99 45.5t-24 108.5zM1087 1731q-11 -56 20.5 -95t86.5 -39q56 0 103 39.5t57 94.5 t-21.5 94t-87.5 39q-55 0 -101 -38.5t-57 -94.5z" />
<glyph unicode="&#xc7;" horiz-adv-x="1517" d="M239 570q-14 198 77.5 396t267.5 345q175 148 382.5 200.5t395.5 0t307 -200.5l-16 -15q-116 143 -299 194t-385.5 0t-372.5 -194q-171 -143 -259.5 -335.5t-75.5 -385t128 -335.5q116 -143 299 -194t385.5 0t372.5 194l12 -15q-147 -125 -320.5 -181.5t-338.5 -41.5 l-135 -270l10 63l102 209q-254 32 -403 221q-120 147 -134 345z" />
<glyph unicode="&#xc8;" horiz-adv-x="1024" d="M102 0l297 1536h820l-5 -20h-798l-144 -738h738l-4 -20h-738l-143 -738h799l-2 -20h-820zM711 1733l12 16l235 -156l-14 -16z" />
<glyph unicode="&#xc9;" horiz-adv-x="1024" d="M102 0l297 1536h820l-5 -20h-798l-144 -738h738l-4 -20h-738l-143 -738h799l-2 -20h-820zM684 1593l293 156l8 -16l-295 -156z" />
<glyph unicode="&#xca;" horiz-adv-x="1024" d="M102 0l297 1536h820l-5 -20h-798l-144 -738h738l-4 -20h-738l-143 -738h799l-2 -20h-820zM510 1577l367 307l247 -307h-28l-224 278l-333 -278h-29z" />
<glyph unicode="&#xcb;" horiz-adv-x="1024" d="M102 0l297 1536h820l-5 -20h-798l-144 -738h738l-4 -20h-738l-143 -738h799l-2 -20h-820zM612 1577l27 143h20l-26 -143h-21zM1001 1577l27 143h21l-27 -143h-21z" />
<glyph unicode="&#xcc;" horiz-adv-x="479" d="M229 0l297 1536h21l-297 -1536h-21zM438 1733l13 16l235 -156l-14 -16z" />
<glyph unicode="&#xcd;" horiz-adv-x="479" d="M229 0l297 1536h21l-297 -1536h-21zM412 1593l293 156l8 -16l-295 -156z" />
<glyph unicode="&#xce;" horiz-adv-x="819" d="M399 0l297 1536h21l-297 -1536h-21zM399 1536l367 307l248 -307h-29l-223 279l-334 -279h-29z" />
<glyph unicode="&#xcf;" horiz-adv-x="430" d="M205 0l297 1536h20l-297 -1536h-20zM408 1577l28 143h21l-29 -143h-20zM612 1577l29 143h21l-29 -143h-21z" />
<glyph unicode="&#xd0;" horiz-adv-x="1628" d="M248 758l4 20h194l148 758h461q156 0 286.5 -61t213.5 -163.5t116 -245t2 -298.5q-40 -209 -177 -385.5t-333 -279.5t-405 -103h-461l145 758h-194zM319 20h441q203 0 394.5 100.5t325.5 272.5t173 375q29 152 -3 290.5t-113 238.5t-207.5 159.5t-278.5 59.5h-441 l-143 -738h195l-5 -20h-194z" />
<glyph unicode="&#xd1;" horiz-adv-x="1611" d="M102 0l297 1536h205l891 -1503l291 1503h20l-297 -1536h-20l-899 1516h-174l-293 -1516h-21zM885 1593l98 82l272 -76l80 66l21 -6l-101 -82l-272 76l-80 -66z" />
<glyph unicode="&#xd2;" horiz-adv-x="1740" d="M250 768q31 156 119.5 298.5t211 245t276.5 163.5t310 61q209 0 366 -103t225.5 -280t27.5 -385q-40 -209 -177 -385.5t-333.5 -279.5t-405.5 -103q-156 0 -286.5 61t-213.5 163.5t-116.5 245t-3.5 298.5zM270 768q-29 -152 3 -290.5t113 -238.5t207.5 -159.5 t278.5 -59.5q203 0 394.5 100.5t325.5 272.5t173 375q29 152 -3 290.5t-113 238.5t-207.5 159.5t-278.5 59.5q-203 0 -394.5 -100.5t-325.5 -272.5t-173 -375zM1069 1733l12 16l236 -156l-14 -16z" />
<glyph unicode="&#xd3;" horiz-adv-x="1740" d="M250 768q31 156 119.5 298.5t211 245t276.5 163.5t310 61q209 0 366 -103t225.5 -280t27.5 -385q-40 -209 -177 -385.5t-333.5 -279.5t-405.5 -103q-156 0 -286.5 61t-213.5 163.5t-116.5 245t-3.5 298.5zM270 768q-29 -152 3 -290.5t113 -238.5t207.5 -159.5 t278.5 -59.5q203 0 394.5 100.5t325.5 272.5t173 375q29 152 -3 290.5t-113 238.5t-207.5 159.5t-278.5 59.5q-203 0 -394.5 -100.5t-325.5 -272.5t-173 -375zM1042 1593l293 156l8 -16l-294 -156z" />
<glyph unicode="&#xd4;" horiz-adv-x="1740" d="M250 768q31 156 119.5 298.5t211 245t276.5 163.5t310 61q209 0 366 -103t225.5 -280t27.5 -385q-40 -209 -177 -385.5t-333.5 -279.5t-405.5 -103q-156 0 -286.5 61t-213.5 163.5t-116.5 245t-3.5 298.5zM270 768q-29 -152 3 -290.5t113 -238.5t207.5 -159.5 t278.5 -59.5q203 0 394.5 100.5t325.5 272.5t173 375q29 152 -3 290.5t-113 238.5t-207.5 159.5t-278.5 59.5q-203 0 -394.5 -100.5t-325.5 -272.5t-173 -375zM860 1536l367 307l248 -307h-29l-223 279l-334 -279h-29z" />
<glyph unicode="&#xd5;" horiz-adv-x="1740" d="M250 768q31 156 119.5 298.5t211 245t276.5 163.5t310 61q209 0 366 -103t225.5 -280t27.5 -385q-40 -209 -177 -385.5t-333.5 -279.5t-405.5 -103q-156 0 -286.5 61t-213.5 163.5t-116.5 245t-3.5 298.5zM270 768q-29 -152 3 -290.5t113 -238.5t207.5 -159.5 t278.5 -59.5q203 0 394.5 100.5t325.5 272.5t173 375q29 152 -3 290.5t-113 238.5t-207.5 159.5t-278.5 59.5q-203 0 -394.5 -100.5t-325.5 -272.5t-173 -375zM950 1593l99 82l272 -76l80 66l20 -6l-100 -82l-272 76l-80 -66z" />
<glyph unicode="&#xd6;" horiz-adv-x="1740" d="M250 768q31 156 119.5 298.5t211 245t276.5 163.5t310 61q209 0 366 -103t225.5 -280t27.5 -385q-40 -209 -177 -385.5t-333.5 -279.5t-405.5 -103q-156 0 -286.5 61t-213.5 163.5t-116.5 245t-3.5 298.5zM270 768q-29 -152 3 -290.5t113 -238.5t207.5 -159.5 t278.5 -59.5q203 0 394.5 100.5t325.5 272.5t173 375q29 152 -3 290.5t-113 238.5t-207.5 159.5t-278.5 59.5q-203 0 -394.5 -100.5t-325.5 -272.5t-173 -375zM971 1577l26 143h21l-27 -143h-20zM1360 1577l26 143h21l-27 -143h-20z" />
<glyph unicode="&#xd7;" horiz-adv-x="770" d="M199 500l319 268l-215 268l16 15l218 -269l319 269l12 -15l-321 -268l217 -268l-16 -15l-218 269l-319 -269z" />
<glyph unicode="&#xd8;" horiz-adv-x="1740" d="M106 23l256 213q-81 105 -111 242t-1 290q31 156 119.5 298.5t211 245t276.5 163.5t310 61q153 0 281 -58.5t215 -162.5l258 213l10 -15l-256 -213q81 -107 111 -243.5t0 -288.5q-40 -209 -177 -385.5t-333.5 -279.5t-405.5 -103q-156 0 -284 58t-213 163l-256 -213z M270 768q-29 -148 1 -282t108 -236l1268 1050q-83 102 -208.5 159t-275.5 57q-203 0 -394.5 -100.5t-325.5 -272.5t-173 -375zM391 236q84 -102 207 -159t274 -57q203 0 394.5 100.5t325.5 272.5t173 375q29 148 0.5 281.5t-106.5 236.5z" />
<glyph unicode="&#xd9;" horiz-adv-x="1331" d="M211 563l188 973h21l-189 -973q-28 -147 20.5 -272t159 -198t257.5 -73q224 0 415 159.5t234 383.5l188 973h21l-189 -973q-30 -153 -130 -282.5t-244 -205t-297 -75.5t-268.5 75.5t-166 205t-20.5 282.5zM856 1692l12 16l236 -156l-14 -16z" />
<glyph unicode="&#xda;" horiz-adv-x="1331" d="M211 563l188 973h21l-189 -973q-28 -147 20.5 -272t159 -198t257.5 -73q224 0 415 159.5t234 383.5l188 973h21l-189 -973q-30 -153 -130 -282.5t-244 -205t-297 -75.5t-268.5 75.5t-166 205t-20.5 282.5zM829 1552l293 156l8 -16l-294 -156z" />
<glyph unicode="&#xdb;" horiz-adv-x="1331" d="M211 563l188 973h21l-189 -973q-28 -147 20.5 -272t159 -198t257.5 -73q224 0 415 159.5t234 383.5l188 973h21l-189 -973q-30 -153 -130 -282.5t-244 -205t-297 -75.5t-268.5 75.5t-166 205t-20.5 282.5zM655 1536l367 307l248 -307h-29l-223 279l-334 -279h-29z" />
<glyph unicode="&#xdc;" horiz-adv-x="1331" d="M211 563l188 973h21l-189 -973q-28 -147 20.5 -272t159 -198t257.5 -73q224 0 415 159.5t234 383.5l188 973h21l-189 -973q-30 -153 -130 -282.5t-244 -205t-297 -75.5t-268.5 75.5t-166 205t-20.5 282.5zM758 1536l26 143h21l-27 -143h-20zM1147 1536l27 143h20 l-27 -143h-20z" />
<glyph unicode="&#xdd;" horiz-adv-x="1716" d="M399 1536h23l516 -1108l948 1108h25l-967 -1126l-78 -410h-20l78 410zM1022 1552l293 156l8 -16l-295 -156z" />
<glyph unicode="&#xde;" horiz-adv-x="983" d="M102 0l297 1536h21l-74 -379h369q161 0 253 -114t60 -275q-31 -161 -167.5 -275t-297.5 -114h-368l-72 -379h-21zM199 399h368q152 0 282 108.5t159 260.5q31 152 -57 260.5t-240 108.5h-369z" />
<glyph unicode="&#xdf;" horiz-adv-x="1085" d="M205 0l241 1249h-102l4 21h103q22 110 114.5 188t202.5 78t173.5 -78t41.5 -188q-17 -88 -81.5 -157.5t-149.5 -96.5q176 -29 270.5 -172t58.5 -332q-27 -139 -118 -257t-222 -186.5t-270 -68.5l2 20q133 0 259 66t214.5 179.5t114.5 246.5q25 132 -17.5 245t-142.5 180 t-235 67l4 20q101 0 187 72.5t106 173.5t-39 173.5t-160 72.5t-187 -72.5t-106 -173.5l-246 -1270h-20z" />
<glyph unicode="&#xe0;" d="M201 512q27 139 118.5 257t223 186.5t270.5 68.5t243.5 -68.5t150 -186.5t18.5 -257l-99 -512h-20l70 369q-77 -162 -233 -265.5t-329 -103.5q-139 0 -244 68.5t-150.5 186.5t-18.5 257zM221 512q-26 -133 18 -246.5t144 -179.5t233 -66q130 0 255 63t215.5 177 t117.5 252q26 133 -18 246.5t-144 179.5t-233 66t-259 -66t-214.5 -179.5t-114.5 -246.5zM713 1221l12 16l236 -156l-15 -16z" />
<glyph unicode="&#xe1;" d="M201 512q27 139 118.5 257t223 186.5t270.5 68.5t243.5 -68.5t150 -186.5t18.5 -257l-99 -512h-20l70 369q-77 -162 -233 -265.5t-329 -103.5q-139 0 -244 68.5t-150.5 186.5t-18.5 257zM221 512q-26 -133 18 -246.5t144 -179.5t233 -66q130 0 255 63t215.5 177 t117.5 252q26 133 -18 246.5t-144 179.5t-233 66t-259 -66t-214.5 -179.5t-114.5 -246.5zM686 1081l293 156l8 -16l-295 -156z" />
<glyph unicode="&#xe2;" d="M201 512q27 139 118.5 257t223 186.5t270.5 68.5t243.5 -68.5t150 -186.5t18.5 -257l-99 -512h-20l70 369q-77 -162 -233 -265.5t-329 -103.5q-139 0 -244 68.5t-150.5 186.5t-18.5 257zM221 512q-26 -133 18 -246.5t144 -179.5t233 -66q130 0 255 63t215.5 177 t117.5 252q26 133 -18 246.5t-144 179.5t-233 66t-259 -66t-214.5 -179.5t-114.5 -246.5zM504 1024l366 307l248 -307h-28l-224 279l-334 -279h-28z" />
<glyph unicode="&#xe3;" d="M201 512q27 139 118.5 257t223 186.5t270.5 68.5t243.5 -68.5t150 -186.5t18.5 -257l-99 -512h-20l70 369q-77 -162 -233 -265.5t-329 -103.5q-139 0 -244 68.5t-150.5 186.5t-18.5 257zM221 512q-26 -133 18 -246.5t144 -179.5t233 -66q130 0 255 63t215.5 177 t117.5 252q26 133 -18 246.5t-144 179.5t-233 66t-259 -66t-214.5 -179.5t-114.5 -246.5zM594 1081l98 82l273 -76l79 66l21 -6l-100 -82l-273 76l-80 -66z" />
<glyph unicode="&#xe4;" d="M201 512q27 139 118.5 257t223 186.5t270.5 68.5t243.5 -68.5t150 -186.5t18.5 -257l-99 -512h-20l70 369q-77 -162 -233 -265.5t-329 -103.5q-139 0 -244 68.5t-150.5 186.5t-18.5 257zM221 512q-26 -133 18 -246.5t144 -179.5t233 -66q130 0 255 63t215.5 177 t117.5 252q26 133 -18 246.5t-144 179.5t-233 66t-259 -66t-214.5 -179.5t-114.5 -246.5zM614 1065l27 143h21l-27 -143h-21zM1004 1065l26 143h21l-27 -143h-20z" />
<glyph unicode="&#xe5;" d="M201 512q27 139 118.5 257t223 186.5t270.5 68.5t243.5 -68.5t150 -186.5t18.5 -257l-99 -512h-20l70 369q-77 -162 -233 -265.5t-329 -103.5q-139 0 -244 68.5t-150.5 186.5t-18.5 257zM221 512q-26 -133 18 -246.5t144 -179.5t233 -66q130 0 255 63t215.5 177 t117.5 252q26 133 -18 246.5t-144 179.5t-233 66t-259 -66t-214.5 -179.5t-114.5 -246.5zM696 1219q12 63 66 108t117 45t100 -45t25 -108t-67 -108.5t-118 -45.5t-99 45.5t-24 108.5zM717 1219q-11 -56 20 -95t86 -39q56 0 103 39.5t57 94.5t-21.5 94t-87.5 39 q-55 0 -100.5 -38.5t-56.5 -94.5z" />
<glyph unicode="&#xe7;" horiz-adv-x="1079" d="M190.5 380.5q-9.5 131.5 51 263t178.5 230.5q117 98 255.5 132.5t263.5 0t206 -132.5l-19 -14q-116 142 -320 142t-376 -142q-112 -95 -170 -222t-49.5 -254t84.5 -220q117 -142 321.5 -142t374.5 142l13 -14q-195 -163 -426 -150l-134 -268l11 63l102 207 q-173 19 -278 148q-79 99 -88.5 230.5z" />
<glyph unicode="&#xe8;" d="M201 512q27 139 118.5 257t223 186.5t270.5 68.5t243.5 -68.5t150 -186.5t18.5 -257l-2 -10h-1004q-23 -131 21.5 -242t144 -175.5t231.5 -64.5q99 0 197 39t178 107l15 -14q-85 -72 -186.5 -112t-205.5 -40q-139 0 -244 68.5t-150.5 186.5t-18.5 257zM223 522h983 q22 130 -23 241t-144 176t-230 65q-132 0 -257.5 -65t-213.5 -176t-115 -241zM713 1221l12 16l236 -156l-15 -16z" />
<glyph unicode="&#xe9;" d="M201 512q27 139 118.5 257t223 186.5t270.5 68.5t243.5 -68.5t150 -186.5t18.5 -257l-2 -10h-1004q-23 -131 21.5 -242t144 -175.5t231.5 -64.5q99 0 197 39t178 107l15 -14q-85 -72 -186.5 -112t-205.5 -40q-139 0 -244 68.5t-150.5 186.5t-18.5 257zM223 522h983 q22 130 -23 241t-144 176t-230 65q-132 0 -257.5 -65t-213.5 -176t-115 -241zM686 1081l293 156l8 -16l-295 -156z" />
<glyph unicode="&#xea;" d="M201 512q27 139 118.5 257t223 186.5t270.5 68.5t243.5 -68.5t150 -186.5t18.5 -257l-2 -10h-1004q-23 -131 21.5 -242t144 -175.5t231.5 -64.5q99 0 197 39t178 107l15 -14q-85 -72 -186.5 -112t-205.5 -40q-139 0 -244 68.5t-150.5 186.5t-18.5 257zM223 522h983 q22 130 -23 241t-144 176t-230 65q-132 0 -257.5 -65t-213.5 -176t-115 -241zM504 1024l366 307l248 -307h-28l-224 279l-334 -279h-28z" />
<glyph unicode="&#xeb;" d="M201 512q27 139 118.5 257t223 186.5t270.5 68.5t243.5 -68.5t150 -186.5t18.5 -257l-2 -10h-1004q-23 -131 21.5 -242t144 -175.5t231.5 -64.5q99 0 197 39t178 107l15 -14q-85 -72 -186.5 -112t-205.5 -40q-139 0 -244 68.5t-150.5 186.5t-18.5 257zM223 522h983 q22 130 -23 241t-144 176t-230 65q-132 0 -257.5 -65t-213.5 -176t-115 -241zM614 1065l27 143h21l-27 -143h-21zM1004 1065l26 143h21l-27 -143h-20z" />
<glyph unicode="&#xec;" horiz-adv-x="479" d="M229 0l199 1024h21l-199 -1024h-21zM338 1221l14 16l234 -156l-13 -16z" />
<glyph unicode="&#xed;" horiz-adv-x="479" d="M229 0l199 1024h21l-199 -1024h-21zM311 1081l295 156l6 -16l-293 -156z" />
<glyph unicode="&#xee;" horiz-adv-x="819" d="M301 1024l367 307l247 -307h-28l-225 279l-332 -279h-29zM399 0l199 1024h20l-198 -1024h-21z" />
<glyph unicode="&#xef;" horiz-adv-x="430" d="M205 0l198 1024h21l-199 -1024h-20zM309 1065l27 143h20l-26 -143h-21zM514 1065l27 143h20l-26 -143h-21z" />
<glyph unicode="&#xf0;" horiz-adv-x="1230" d="M193.5 450.5q9.5 101.5 52 195t121 176t178.5 134.5q168 87 333 65.5t263 -138.5l-164 428l-143 -185h-23l160 203l-80 207h22l72 -186l143 186h23l-158 -205l215 -561q36 -91 26.5 -192.5t-51.5 -195.5t-120 -176.5t-178 -135.5q-100 -52 -205 -64.5t-194 12.5 t-159.5 87t-105.5 153q-37 91 -27.5 192.5zM214 414q1 -77 28 -146q33 -87 101 -146.5t153.5 -83t186 -12t196.5 61.5t171 129.5t115 170t50 188.5t-25 184q-34 86 -102 145t-153.5 83.5t-185.5 13t-196 -61.5q-77 -40 -141.5 -99t-107.5 -129t-67 -145.5t-23 -152.5z" />
<glyph unicode="&#xf1;" d="M102 0l199 1024h21l-72 -371q77 162 233.5 266.5t329.5 104.5q139 0 243.5 -68.5t150 -186.5t18.5 -257l-99 -512h-20l98 512q26 133 -18 246.5t-144 179.5t-233 66q-130 0 -255.5 -63t-214.5 -172.5t-114 -236.5l-102 -532h-21zM594 1081l98 82l273 -76l79 66l21 -6 l-100 -82l-273 76l-80 -66z" />
<glyph unicode="&#xf2;" d="M201 512q27 139 118.5 257t223 186.5t270.5 68.5t243.5 -68.5t150 -186.5t18.5 -257t-118.5 -257t-222.5 -186.5t-270 -68.5t-244 68.5t-150.5 186.5t-18.5 257zM221 512q-26 -133 18 -246.5t144 -179.5t233 -66t259 66t214.5 179.5t114.5 246.5t-18 246.5t-144 179.5 t-233 66t-259 -66t-214.5 -179.5t-114.5 -246.5zM713 1221l12 16l236 -156l-15 -16z" />
<glyph unicode="&#xf3;" d="M201 512q27 139 118.5 257t223 186.5t270.5 68.5t243.5 -68.5t150 -186.5t18.5 -257t-118.5 -257t-222.5 -186.5t-270 -68.5t-244 68.5t-150.5 186.5t-18.5 257zM221 512q-26 -133 18 -246.5t144 -179.5t233 -66t259 66t214.5 179.5t114.5 246.5t-18 246.5t-144 179.5 t-233 66t-259 -66t-214.5 -179.5t-114.5 -246.5zM686 1081l295 156l6 -16l-293 -156z" />
<glyph unicode="&#xf4;" d="M201 512q27 139 118.5 257t223 186.5t270.5 68.5t243.5 -68.5t150 -186.5t18.5 -257t-118.5 -257t-222.5 -186.5t-270 -68.5t-244 68.5t-150.5 186.5t-18.5 257zM221 512q-26 -133 18 -246.5t144 -179.5t233 -66t259 66t214.5 179.5t114.5 246.5t-18 246.5t-144 179.5 t-233 66t-259 -66t-214.5 -179.5t-114.5 -246.5zM504 1024l366 307l248 -307h-28l-224 279l-334 -279h-28z" />
<glyph unicode="&#xf5;" d="M201 512q27 139 118.5 257t223 186.5t270.5 68.5t243.5 -68.5t150 -186.5t18.5 -257t-118.5 -257t-222.5 -186.5t-270 -68.5t-244 68.5t-150.5 186.5t-18.5 257zM221 512q-26 -133 18 -246.5t144 -179.5t233 -66t259 66t214.5 179.5t114.5 246.5t-18 246.5t-144 179.5 t-233 66t-259 -66t-214.5 -179.5t-114.5 -246.5zM594 1081l98 82l273 -76l79 66l21 -6l-100 -82l-273 76l-80 -66z" />
<glyph unicode="&#xf6;" d="M201 512q27 139 118.5 257t223 186.5t270.5 68.5t243.5 -68.5t150 -186.5t18.5 -257t-118.5 -257t-222.5 -186.5t-270 -68.5t-244 68.5t-150.5 186.5t-18.5 257zM221 512q-26 -133 18 -246.5t144 -179.5t233 -66t259 66t214.5 179.5t114.5 246.5t-18 246.5t-144 179.5 t-233 66t-259 -66t-214.5 -179.5t-114.5 -246.5zM614 1065l27 143h21l-27 -143h-21zM1004 1065l26 143h21l-27 -143h-20z" />
<glyph unicode="&#xf7;" horiz-adv-x="983" d="M248 758l4 20h778l-4 -20h-778zM553 379l29 143h20l-29 -143h-20zM678 1014l27 143h20l-27 -143h-20z" />
<glyph unicode="&#xf8;" d="M104 14l170 144q-113 149 -73 354q27 139 118.5 257t223 186.5t270.5 68.5q102 0 187 -37t141 -104l170 141l10 -14l-168 -142q53 -70 72 -161t0 -195q-27 -139 -118.5 -257t-222.5 -186.5t-270 -68.5q-101 0 -185 37.5t-142 105.5l-170 -143zM221 512q-18 -97 1 -185 t71 -155l829 694q-116 138 -313 138q-133 0 -259 -66t-214.5 -179.5t-114.5 -246.5zM303 158q55 -65 136 -101.5t177 -36.5q133 0 259 66t214.5 179.5t114.5 246.5q20 99 1 186t-72 154z" />
<glyph unicode="&#xf9;" d="M201 512l100 512h21l-101 -512q-26 -133 18 -246.5t144 -179.5t233 -66t259 66t214.5 179.5t114.5 246.5l101 512h20l-100 -512q-27 -139 -118.5 -257t-222.5 -186.5t-270 -68.5t-244 68.5t-150.5 186.5t-18.5 257zM705 1180l12 16l235 -156l-14 -16z" />
<glyph unicode="&#xfa;" d="M201 512l100 512h21l-101 -512q-26 -133 18 -246.5t144 -179.5t233 -66t259 66t214.5 179.5t114.5 246.5l101 512h20l-100 -512q-27 -139 -118.5 -257t-222.5 -186.5t-270 -68.5t-244 68.5t-150.5 186.5t-18.5 257zM678 1040l293 156l8 -16l-295 -156z" />
<glyph unicode="&#xfb;" d="M201 512l100 512h21l-101 -512q-26 -133 18 -246.5t144 -179.5t233 -66t259 66t214.5 179.5t114.5 246.5l101 512h20l-100 -512q-27 -139 -118.5 -257t-222.5 -186.5t-270 -68.5t-244 68.5t-150.5 186.5t-18.5 257zM504 1024l366 307l248 -307h-28l-224 279l-334 -279 h-28z" />
<glyph unicode="&#xfc;" d="M201 512l100 512h21l-101 -512q-26 -133 18 -246.5t144 -179.5t233 -66t259 66t214.5 179.5t114.5 246.5l101 512h20l-100 -512q-27 -139 -118.5 -257t-222.5 -186.5t-270 -68.5t-244 68.5t-150.5 186.5t-18.5 257zM608 1024l27 143h20l-26 -143h-21zM997 1024l27 143h20 l-26 -143h-21z" />
<glyph unicode="&#xfd;" horiz-adv-x="1128" d="M225 -512l328 512l-252 1024h21l245 -999l637 999h21l-975 -1536h-25zM627 1040l293 156l8 -16l-295 -156z" />
<glyph unicode="&#xfe;" d="M2 -512l397 2048h21l-170 -883q77 162 233.5 266.5t329.5 104.5q139 0 243.5 -68.5t150 -186.5t18.5 -257t-118.5 -257t-222.5 -186.5t-270 -68.5q-173 0 -289.5 104t-131.5 265l-170 -881h-21zM221 512q-20 -104 1.5 -196t76 -156.5t137 -102t180.5 -37.5q133 0 259 66 t214.5 179.5t114.5 246.5t-18 246.5t-144 179.5t-233 66q-131 0 -256 -63.5t-215 -177.5t-117 -251z" />
<glyph unicode="&#xff;" horiz-adv-x="1128" d="M225 -512l328 512l-252 1024h21l245 -999l637 999h21l-975 -1536h-25zM557 1024l27 143h20l-26 -143h-21zM946 1024l27 143h20l-26 -143h-21z" />
<glyph unicode="&#x178;" horiz-adv-x="1716" d="M399 1536h23l516 -1108l948 1108h25l-967 -1126l-78 -410h-20l78 410zM950 1536l27 143h20l-26 -143h-21zM1339 1536l27 143h20l-26 -143h-21z" />
<glyph unicode="&#x2c6;" horiz-adv-x="819" d="M340 1229l367 307l247 -307h-28l-224 278l-333 -278h-29z" />
<glyph unicode="&#x2dc;" horiz-adv-x="663" d="M385 1454l98 82l273 -76l80 66l20 -6l-100 -82l-273 75l-80 -65z" />
<glyph unicode="&#x2000;" horiz-adv-x="942" />
<glyph unicode="&#x2001;" horiz-adv-x="1884" />
<glyph unicode="&#x2002;" horiz-adv-x="942" />
<glyph unicode="&#x2003;" horiz-adv-x="1884" />
<glyph unicode="&#x2004;" horiz-adv-x="628" />
<glyph unicode="&#x2005;" horiz-adv-x="471" />
<glyph unicode="&#x2006;" horiz-adv-x="314" />
<glyph unicode="&#x2007;" horiz-adv-x="314" />
<glyph unicode="&#x2008;" horiz-adv-x="235" />
<glyph unicode="&#x2009;" horiz-adv-x="376" />
<glyph unicode="&#x200a;" horiz-adv-x="104" />
<glyph unicode="&#x2010;" horiz-adv-x="716" d="M219 604l4 21h512l-4 -21h-512z" />
<glyph unicode="&#x2011;" horiz-adv-x="716" d="M219 604l4 21h512l-4 -21h-512z" />
<glyph unicode="&#x2012;" horiz-adv-x="716" d="M219 604l4 21h512l-4 -21h-512z" />
<glyph unicode="&#x2013;" horiz-adv-x="983" d="M248 758l4 20h778l-4 -20h-778z" />
<glyph unicode="&#x2014;" horiz-adv-x="1126" d="M248 758l4 20h922l-5 -20h-921z" />
<glyph unicode="&#x2018;" horiz-adv-x="266" d="M340 1229l59 307h21l-55 -287h41l-5 -20h-61z" />
<glyph unicode="&#x2019;" horiz-adv-x="266" d="M381 1229l55 287h-41l4 20h62l-60 -307h-20z" />
<glyph unicode="&#x201a;" horiz-adv-x="266" d="M102 -205l56 287h-41l4 20h61l-59 -307h-21z" />
<glyph unicode="&#x201c;" horiz-adv-x="348" d="M340 1229l59 307h21l-55 -287h41l-5 -20h-61zM422 1229l59 307h21l-56 -287h41l-4 -20h-61z" />
<glyph unicode="&#x201d;" horiz-adv-x="348" d="M381 1229l55 287h-41l4 20h62l-60 -307h-20zM463 1229l55 287h-41l4 20h62l-60 -307h-20z" />
<glyph unicode="&#x201e;" horiz-adv-x="348" d="M102 -205l56 287h-41l4 20h61l-59 -307h-21zM184 -205l56 287h-41l4 20h61l-59 -307h-21z" />
<glyph unicode="&#x2022;" horiz-adv-x="512" d="M250 768q12 63 66.5 108.5t117.5 45.5t99 -45.5t24 -108.5t-65.5 -108.5t-116.5 -45.5t-100 45.5t-25 108.5z" />
<glyph unicode="&#x202f;" horiz-adv-x="376" />
<glyph unicode="&#x205f;" horiz-adv-x="471" />
<glyph unicode="&#x20ac;" horiz-adv-x="1075" d="M244 737l4 21h485l-4 -21h-362q-22 -147 14 -279.5t117 -228.5t205 -152.5t272 -56.5l-2 -20q-153 0 -282 57.5t-212.5 156t-120 235t-12.5 288.5h-102zM252 778l4 21h102q35 151 124.5 287t211 235t272.5 157t304 58l-4 -20q-197 0 -385 -96t-322 -260.5t-180 -360.5 h362l-4 -21h-485z" />
<glyph unicode="&#x25fc;" horiz-adv-x="1024" d="M0 0v1024h1024v-1024h-1024z" />
</font>
</defs>
</svg>
